<svg width="22" height="18" viewBox="0 0 22 10" fill="none" xmlns="http://www.w3.org/2000/svg">
<path fill-rule="evenodd" clip-rule="evenodd" d="M4.38126 5.78583C5.29869 3.71051 7.07056 1.83716 9.22886 2.34223C9.84081 2.49771 9.91033 3.03661 9.76218 3.72143C10.4399 4.69085 10.8927 5.14147 11.0332 5.00546C11.7836 4.08623 12.565 3.71215 13.4396 3.75606C14.2626 6.15475 15.4589 8.38877 16.8343 10.4816C18.2001 10.9711 19.77 11.1986 20.9034 11.7181C21.794 12.1899 21.5389 12.9675 20.8606 13.8373C18.8944 16.0479 14.8923 16.2507 12.2799 14.6696C10.8559 12.8173 9.03623 11.5652 6.77596 10.8777C4.98599 10.1696 3.61767 9.05349 2.81316 7.70917C2.61294 7.38272 2.57317 7.07442 2.89302 6.79875L4.38108 5.78435L4.38126 5.78583Z" fill="currentColor"/>
<rect x="0.786133" y="12.3274" width="2" height="15.1975" rx="1" transform="rotate(-59.5997 0.786133 12.3274)" fill="currentColor"/>
</svg>
