<svg width="15" height="19" viewBox="0 0 15 19" fill="none" xmlns="http://www.w3.org/2000/svg">
<path d="M14.9885 17.5811L14.1876 11.5475C13.9076 9.40985 12.0851 7.81148 9.92225 7.81148H8.28044V6.7727C9.80259 6.41291 10.9438 5.05413 10.9438 3.4363C10.9438 1.53823 9.40215 0 7.4999 0C5.59765 0 4.05596 1.53827 4.05596 3.4363C4.05596 5.05497 5.19717 6.41287 6.71936 6.7727V7.81148H5.07755C2.91475 7.81148 1.09316 9.40985 0.812219 11.5475L0.0112554 17.5811C-0.088865 18.3202 0.491513 19 1.25259 19H13.7881C14.5085 19 15.0888 18.3405 14.9887 17.5811H14.9885ZM5.61708 3.45572C5.61708 2.43644 6.45793 1.59745 7.47948 1.59745C8.50103 1.59745 9.34188 2.43644 9.34188 3.45572C9.34188 4.19481 8.90151 4.85429 8.2609 5.13369V4.4344C8.2609 4.27441 8.12088 4.13471 7.96053 4.13471H6.97968C6.81933 4.13471 6.67931 4.27441 6.67931 4.4344V5.13369C6.05747 4.83477 5.6171 4.19481 5.6171 3.45572H5.61708Z" fill="white"/>
</svg>
